<?xml version="1.0" standalone="no"?><!DOCTYPE svg PUBLIC "-//W3C//DTD SVG 1.1//EN" "http://www.w3.org/Graphics/SVG/1.1/DTD/svg11.dtd"><svg t="1597221806144" class="icon" viewBox="0 0 1024 1024" version="1.1" xmlns="http://www.w3.org/2000/svg" p-id="2090" xmlns:xlink="http://www.w3.org/1999/xlink" width="32" height="32"><defs><style type="text/css"></style></defs><path d="M513.47454744 149.9418909l363.07894963 331.88660002c-18.48855632 2.26853451-35.84284538 9.86812517-49.68090592 22.00478482l-0.22685348 0.22685345-0.22685346 0.22685343c-13.38435366 11.90980622-29.26409528 32.89375051-29.26409527 65.90092777v309.08782809H664.21866618V747.92758989c0-49.34062577-40.83362133-89.38026002-91.08166091-89.38026002H453.35838271c-50.24803956 0-91.0816609 40.15306097-91.08166091 89.38026002v131.23472189H230.9285732v-309.65496177c0-45.37069036-34.5951514-83.02836335-79.28528141-88.69969962l361.83125565-330.86575949m0-73.5005184c-12.70379331 0-25.4075866 4.31021558-34.48172467 12.81722004L61.24219124 471.16637867c-14.97232781 12.81722003-19.2825434 32.09976343-11.22924586 49.68090594 8.05329754 17.12743561 25.18073316 27.2224142 44.91698345 27.22241422h44.91698345c12.81722003 0 23.02562536 9.64127169 23.02562536 21.32422448V902.18793713c0 24.61359952 21.8913581 44.91698347 48.66006543 44.91698345h170.14008886c26.76870731 0 48.66006541-20.30338393 48.66006542-44.91698345V747.92758989c0-11.79637949 10.20840532-21.32422447 23.02562536-21.32422449h119.77862256c12.81722003 0 23.02562536 9.64127169 23.02562535 21.32422449v154.37377395c0 24.61359952 21.8913581 44.91698347 49.22719906 44.91698348h170.14008886c27.33584093 0 49.79433269-20.30338393 49.79433265-44.91698348v-332.3403069c0-6.35189665 1.58797418-10.66211223 6.46532339-14.97232782 4.31021558-3.74308197 10.20840532-5.89818975 16.56030198-5.89818975H930.54461861c19.84967703 0 36.86368593-10.66211223 44.91698346-27.2224142 9.07413807-17.58114252 4.7639225-37.43081954-9.07413808-50.24803962L548.06969883 89.25859254c-9.07413807-8.50700444-21.8913581-12.81722003-34.59515139-12.81722004z" fill="#d4237a" p-id="2091"></path></svg>